<svg xmlns="http://www.w3.org/2000/svg" width="600" height="183" viewBox="0 0 600 183">
  <text x="4" y="14" font-family="Liberation Sans, DejaVu Sans, sans-serif" font-size="10" fill="#666">qr-only-18mm — tape 18mm — 0 text lines</text>
  <rect x="0.5" y="18.5" width="599" height="164" fill="white" stroke="#aaa" stroke-width="1"/>
  <g transform="translate(230,31) scale(48.275862)"><path d="M0,0H0.1V0.1H0zM0.1,0H0.2V0.1H0.1zM0.2,0H0.3V0.1H0.2zM0.3,0H0.4V0.1H0.3zM0.4,0H0.5V0.1H0.4zM0.5,0H0.6V0.1H0.5zM0.6,0H0.7V0.1H0.6zM0.8,0H0.9V0.1H0.8zM0.9,0H1V0.1H0.9zM1,0H1.1V0.1H1zM1.2,0H1.3V0.1H1.2zM1.5,0H1.6V0.1H1.5zM1.6,0H1.7V0.1H1.6zM1.8,0H1.9V0.1H1.8zM1.9,0H2V0.1H1.9zM2,0H2.1V0.1H2zM2.2,0H2.3V0.1H2.2zM2.3,0H2.4V0.1H2.3zM2.4,0H2.5V0.1H2.4zM2.5,0H2.6V0.1H2.5zM2.6,0H2.7V0.1H2.6zM2.7,0H2.8V0.1H2.7zM2.8,0H2.9V0.1H2.8zM0,0.1H0.1V0.2H0zM0.6,0.1H0.7V0.2H0.6zM0.8,0.1H0.9V0.2H0.8zM0.9,0.1H1V0.2H0.9zM1.4,0.1H1.5V0.2H1.4zM1.5,0.1H1.6V0.2H1.5zM1.7,0.1H1.8V0.2H1.7zM1.8,0.1H1.9V0.2H1.8zM2,0.1H2.1V0.2H2zM2.2,0.1H2.3V0.2H2.2zM2.8,0.1H2.9V0.2H2.8zM0,0.2H0.1V0.3H0zM0.2,0.2H0.3V0.3H0.2zM0.3,0.2H0.4V0.3H0.3zM0.4,0.2H0.5V0.3H0.4zM0.6,0.2H0.7V0.3H0.6zM0.9,0.2H1V0.3H0.9zM1,0.2H1.1V0.3H1zM1.2,0.2H1.3V0.3H1.2zM1.3,0.2H1.4V0.3H1.3zM1.4,0.2H1.5V0.3H1.4zM1.5,0.2H1.6V0.3H1.5zM1.8,0.2H1.9V0.3H1.8zM2.2,0.2H2.3V0.3H2.2zM2.4,0.2H2.5V0.3H2.4zM2.5,0.2H2.6V0.3H2.5zM2.6,0.2H2.7V0.3H2.6zM2.8,0.2H2.9V0.3H2.8zM0,0.3H0.1V0.4H0zM0.2,0.3H0.3V0.4H0.2zM0.3,0.3H0.4V0.4H0.3zM0.4,0.3H0.5V0.4H0.4zM0.6,0.3H0.7V0.4H0.6zM0.8,0.3H0.9V0.4H0.8zM1,0.3H1.1V0.4H1zM1.2,0.3H1.3V0.4H1.2zM1.6,0.3H1.7V0.4H1.6zM1.7,0.3H1.8V0.4H1.7zM2,0.3H2.1V0.4H2zM2.2,0.3H2.3V0.4H2.2zM2.4,0.3H2.5V0.4H2.4zM2.5,0.3H2.6V0.4H2.5zM2.6,0.3H2.7V0.4H2.6zM2.8,0.3H2.9V0.4H2.8zM0,0.4H0.1V0.5H0zM0.2,0.4H0.3V0.5H0.2zM0.3,0.4H0.4V0.5H0.3zM0.4,0.4H0.5V0.5H0.4zM0.6,0.4H0.7V0.5H0.6zM0.9,0.4H1V0.5H0.9zM1.3,0.4H1.4V0.5H1.3zM1.7,0.4H1.8V0.5H1.7zM1.8,0.4H1.9V0.5H1.8zM1.9,0.4H2V0.5H1.9zM2.2,0.4H2.3V0.5H2.2zM2.4,0.4H2.5V0.5H2.4zM2.5,0.4H2.6V0.5H2.5zM2.6,0.4H2.7V0.5H2.6zM2.8,0.4H2.9V0.5H2.8zM0,0.5H0.1V0.6H0zM0.6,0.5H0.7V0.6H0.6zM0.9,0.5H1V0.6H0.9zM1.2,0.5H1.3V0.6H1.2zM1.4,0.5H1.5V0.6H1.4zM1.7,0.5H1.8V0.6H1.7zM1.8,0.5H1.9V0.6H1.8zM1.9,0.5H2V0.6H1.9zM2.2,0.5H2.3V0.6H2.2zM2.8,0.5H2.9V0.6H2.8zM0,0.6H0.1V0.7H0zM0.1,0.6H0.2V0.7H0.1zM0.2,0.6H0.3V0.7H0.2zM0.3,0.6H0.4V0.7H0.3zM0.4,0.6H0.5V0.7H0.4zM0.5,0.6H0.6V0.7H0.5zM0.6,0.6H0.7V0.7H0.6zM0.8,0.6H0.9V0.7H0.8zM1,0.6H1.1V0.7H1zM1.2,0.6H1.3V0.7H1.2zM1.4,0.6H1.5V0.7H1.4zM1.6,0.6H1.7V0.7H1.6zM1.8,0.6H1.9V0.7H1.8zM2,0.6H2.1V0.7H2zM2.2,0.6H2.3V0.7H2.2zM2.3,0.6H2.4V0.7H2.3zM2.4,0.6H2.5V0.7H2.4zM2.5,0.6H2.6V0.7H2.5zM2.6,0.6H2.7V0.7H2.6zM2.7,0.6H2.8V0.7H2.7zM2.8,0.6H2.9V0.7H2.8zM0.8,0.7H0.9V0.8H0.8zM1,0.7H1.1V0.8H1zM1.2,0.7H1.3V0.8H1.2zM1.3,0.7H1.4V0.8H1.3zM1.4,0.7H1.5V0.8H1.4zM1.7,0.7H1.8V0.8H1.7zM2,0.7H2.1V0.8H2zM0,0.8H0.1V0.9H0zM0.2,0.8H0.3V0.9H0.2zM0.3,0.8H0.4V0.9H0.3zM0.5,0.8H0.6V0.9H0.5zM0.6,0.8H0.7V0.9H0.6zM0.7,0.8H0.8V0.9H0.7zM1.1,0.8H1.2V0.9H1.1zM1.3,0.8H1.4V0.9H1.3zM1.4,0.8H1.5V0.9H1.4zM1.6,0.8H1.7V0.9H1.6zM1.7,0.8H1.8V0.9H1.7zM1.8,0.8H1.9V0.9H1.8zM1.9,0.8H2V0.9H1.9zM2,0.8H2.1V0.9H2zM2.2,0.8H2.3V0.9H2.2zM2.5,0.8H2.6V0.9H2.5zM2.7,0.8H2.8V0.9H2.7zM2.8,0.8H2.9V0.9H2.8zM0.1,0.9H0.2V1H0.1zM0.3,0.9H0.4V1H0.3zM0.4,0.9H0.5V1H0.4zM0.9,0.9H1V1H0.9zM1.1,0.9H1.2V1H1.1zM1.2,0.9H1.3V1H1.2zM1.5,0.9H1.6V1H1.5zM1.6,0.9H1.7V1H1.6zM1.7,0.9H1.8V1H1.7zM1.8,0.9H1.9V1H1.8zM1.9,0.9H2V1H1.9zM2,0.9H2.1V1H2zM2.2,0.9H2.3V1H2.2zM2.3,0.9H2.4V1H2.3zM2.4,0.9H2.5V1H2.4zM2.8,0.9H2.9V1H2.8zM0.2,1H0.3V1.1H0.2zM0.4,1H0.5V1.1H0.4zM0.5,1H0.6V1.1H0.5zM0.6,1H0.7V1.1H0.6zM0.8,1H0.9V1.1H0.8zM0.9,1H1V1.1H0.9zM1.2,1H1.3V1.1H1.2zM1.4,1H1.5V1.1H1.4zM1.5,1H1.6V1.1H1.5zM1.7,1H1.8V1.1H1.7zM2.6,1H2.7V1.1H2.6zM2.7,1H2.8V1.1H2.7zM0,1.1H0.1V1.2H0zM0.1,1.1H0.2V1.2H0.1zM0.4,1.1H0.5V1.2H0.4zM0.7,1.1H0.8V1.2H0.7zM0.9,1.1H1V1.2H0.9zM1.1,1.1H1.2V1.2H1.1zM1.3,1.1H1.4V1.2H1.3zM1.4,1.1H1.5V1.2H1.4zM1.5,1.1H1.6V1.2H1.5zM1.8,1.1H1.9V1.2H1.8zM2,1.1H2.1V1.2H2zM2.2,1.1H2.3V1.2H2.2zM2.3,1.1H2.4V1.2H2.3zM2.4,1.1H2.5V1.2H2.4zM2.8,1.1H2.9V1.2H2.8zM0.3,1.2H0.4V1.3H0.3zM0.4,1.2H0.5V1.3H0.4zM0.5,1.2H0.6V1.3H0.5zM0.6,1.2H0.7V1.3H0.6zM0.7,1.2H0.8V1.3H0.7zM0.8,1.2H0.9V1.3H0.8zM0.9,1.2H1V1.3H0.9zM1,1.2H1.1V1.3H1zM1.6,1.2H1.7V1.3H1.6zM1.7,1.2H1.8V1.3H1.7zM1.9,1.2H2V1.3H1.9zM2.5,1.2H2.6V1.3H2.5zM2.6,1.2H2.7V1.3H2.6zM0,1.3H0.1V1.4H0zM0.1,1.3H0.2V1.4H0.1zM0.4,1.3H0.5V1.4H0.4zM0.5,1.3H0.6V1.4H0.5zM0.7,1.3H0.8V1.4H0.7zM0.8,1.3H0.9V1.4H0.8zM0.9,1.3H1V1.4H0.9zM1.1,1.3H1.2V1.4H1.1zM1.3,1.3H1.4V1.4H1.3zM1.7,1.3H1.8V1.4H1.7zM1.9,1.3H2V1.4H1.9zM2,1.3H2.1V1.4H2zM2.2,1.3H2.3V1.4H2.2zM2.6,1.3H2.7V1.4H2.6zM2.7,1.3H2.8V1.4H2.7zM2.8,1.3H2.9V1.4H2.8zM0.2,1.4H0.3V1.5H0.2zM0.3,1.4H0.4V1.5H0.3zM0.6,1.4H0.7V1.5H0.6zM0.7,1.4H0.8V1.5H0.7zM0.8,1.4H0.9V1.5H0.8zM1.2,1.4H1.3V1.5H1.2zM1.4,1.4H1.5V1.5H1.4zM1.8,1.4H1.9V1.5H1.8zM1.9,1.4H2V1.5H1.9zM2,1.4H2.1V1.5H2zM2.1,1.4H2.2V1.5H2.1zM2.3,1.4H2.4V1.5H2.3zM2.6,1.4H2.7V1.5H2.6zM2.7,1.4H2.8V1.5H2.7zM2.8,1.4H2.9V1.5H2.8zM0,1.5H0.1V1.6H0zM0.1,1.5H0.2V1.6H0.1zM0.2,1.5H0.3V1.6H0.2zM0.5,1.5H0.6V1.6H0.5zM0.7,1.5H0.8V1.6H0.7zM0.8,1.5H0.9V1.6H0.8zM1.1,1.5H1.2V1.6H1.1zM1.2,1.5H1.3V1.6H1.2zM1.3,1.5H1.4V1.6H1.3zM1.5,1.5H1.6V1.6H1.5zM2,1.5H2.1V1.6H2zM2.1,1.5H2.2V1.6H2.1zM2.4,1.5H2.5V1.6H2.4zM2.7,1.5H2.8V1.6H2.7zM0.3,1.6H0.4V1.7H0.3zM0.6,1.6H0.7V1.7H0.6zM0.7,1.6H0.8V1.7H0.7zM0.9,1.6H1V1.7H0.9zM1,1.6H1.1V1.7H1zM1.2,1.6H1.3V1.7H1.2zM1.8,1.6H1.9V1.7H1.8zM1.9,1.6H2V1.7H1.9zM2,1.6H2.1V1.7H2zM2.1,1.6H2.2V1.7H2.1zM2.3,1.6H2.4V1.7H2.3zM2.4,1.6H2.5V1.7H2.4zM2.5,1.6H2.6V1.7H2.5zM2.7,1.6H2.8V1.7H2.7zM0.3,1.7H0.4V1.8H0.3zM0.7,1.7H0.8V1.8H0.7zM1,1.7H1.1V1.8H1zM1.1,1.7H1.2V1.8H1.1zM1.2,1.7H1.3V1.8H1.2zM1.3,1.7H1.4V1.8H1.3zM1.8,1.7H1.9V1.8H1.8zM2,1.7H2.1V1.8H2zM2.3,1.7H2.4V1.8H2.3zM2.5,1.7H2.6V1.8H2.5zM2.6,1.7H2.7V1.8H2.6zM2.7,1.7H2.8V1.8H2.7zM0,1.8H0.1V1.9H0zM0.2,1.8H0.3V1.9H0.2zM0.3,1.8H0.4V1.9H0.3zM0.4,1.8H0.5V1.9H0.4zM0.5,1.8H0.6V1.9H0.5zM0.6,1.8H0.7V1.9H0.6zM0.9,1.8H1V1.9H0.9zM1,1.8H1.1V1.9H1zM1.2,1.8H1.3V1.9H1.2zM1.7,1.8H1.8V1.9H1.7zM2,1.8H2.1V1.9H2zM2.4,1.8H2.5V1.9H2.4zM2.6,1.8H2.7V1.9H2.6zM0.2,1.9H0.3V2H0.2zM0.3,1.9H0.4V2H0.3zM0.5,1.9H0.6V2H0.5zM0.7,1.9H0.8V2H0.7zM0.8,1.9H0.9V2H0.8zM0.9,1.9H1V2H0.9zM1.2,1.9H1.3V2H1.2zM1.5,1.9H1.6V2H1.5zM1.6,1.9H1.7V2H1.6zM1.7,1.9H1.8V2H1.7zM1.8,1.9H1.9V2H1.8zM1.9,1.9H2V2H1.9zM2.1,1.9H2.2V2H2.1zM2.3,1.9H2.4V2H2.3zM2.4,1.9H2.5V2H2.4zM2.6,1.9H2.7V2H2.6zM0.1,2H0.2V2.1H0.1zM0.2,2H0.3V2.1H0.2zM0.3,2H0.4V2.1H0.3zM0.4,2H0.5V2.1H0.4zM0.6,2H0.7V2.1H0.6zM0.8,2H0.9V2.1H0.8zM0.9,2H1V2.1H0.9zM1.1,2H1.2V2.1H1.1zM1.3,2H1.4V2.1H1.3zM1.5,2H1.6V2.1H1.5zM2,2H2.1V2.1H2zM2.1,2H2.2V2.1H2.1zM2.2,2H2.3V2.1H2.2zM2.3,2H2.4V2.1H2.3zM2.4,2H2.5V2.1H2.4zM2.5,2H2.6V2.1H2.5zM2.6,2H2.7V2.1H2.6zM0.8,2.1H0.9V2.2H0.8zM0.9,2.1H1V2.2H0.9zM1,2.1H1.1V2.2H1zM1.1,2.1H1.2V2.2H1.1zM1.3,2.1H1.4V2.2H1.3zM1.4,2.1H1.5V2.2H1.4zM1.5,2.1H1.6V2.2H1.5zM1.7,2.1H1.8V2.2H1.7zM1.8,2.1H1.9V2.2H1.8zM2,2.1H2.1V2.2H2zM2.4,2.1H2.5V2.2H2.4zM2.5,2.1H2.6V2.2H2.5zM2.6,2.1H2.7V2.2H2.6zM2.7,2.1H2.8V2.2H2.7zM2.8,2.1H2.9V2.2H2.8zM0,2.2H0.1V2.3H0zM0.1,2.2H0.2V2.3H0.1zM0.2,2.2H0.3V2.3H0.2zM0.3,2.2H0.4V2.3H0.3zM0.4,2.2H0.5V2.3H0.4zM0.5,2.2H0.6V2.3H0.5zM0.6,2.2H0.7V2.3H0.6zM0.8,2.2H0.9V2.3H0.8zM0.9,2.2H1V2.3H0.9zM1,2.2H1.1V2.3H1zM1.2,2.2H1.3V2.3H1.2zM1.3,2.2H1.4V2.3H1.3zM1.6,2.2H1.7V2.3H1.6zM1.8,2.2H1.9V2.3H1.8zM1.9,2.2H2V2.3H1.9zM2,2.2H2.1V2.3H2zM2.2,2.2H2.3V2.3H2.2zM2.4,2.2H2.5V2.3H2.4zM2.5,2.2H2.6V2.3H2.5zM2.7,2.2H2.8V2.3H2.7zM0,2.3H0.1V2.4H0zM0.6,2.3H0.7V2.4H0.6zM0.8,2.3H0.9V2.4H0.8zM0.9,2.3H1V2.4H0.9zM1.1,2.3H1.2V2.4H1.1zM1.2,2.3H1.3V2.4H1.2zM1.6,2.3H1.7V2.4H1.6zM1.7,2.3H1.8V2.4H1.7zM2,2.3H2.1V2.4H2zM2.4,2.3H2.5V2.4H2.4zM2.5,2.3H2.6V2.4H2.5zM2.7,2.3H2.8V2.4H2.7zM0,2.4H0.1V2.5H0zM0.2,2.4H0.3V2.5H0.2zM0.3,2.4H0.4V2.5H0.3zM0.4,2.4H0.5V2.5H0.4zM0.6,2.4H0.7V2.5H0.6zM1,2.4H1.1V2.5H1zM1.1,2.4H1.2V2.5H1.1zM1.4,2.4H1.5V2.5H1.4zM1.5,2.4H1.6V2.5H1.5zM2,2.4H2.1V2.5H2zM2.1,2.4H2.2V2.5H2.1zM2.2,2.4H2.3V2.5H2.2zM2.3,2.4H2.4V2.5H2.3zM2.4,2.4H2.5V2.5H2.4zM2.6,2.4H2.7V2.5H2.6zM2.7,2.4H2.8V2.5H2.7zM2.8,2.4H2.9V2.5H2.8zM0,2.5H0.1V2.6H0zM0.2,2.5H0.3V2.6H0.2zM0.3,2.5H0.4V2.6H0.3zM0.4,2.5H0.5V2.6H0.4zM0.6,2.5H0.7V2.6H0.6zM0.8,2.5H0.9V2.6H0.8zM1.2,2.5H1.3V2.6H1.2zM1.4,2.5H1.5V2.6H1.4zM1.6,2.5H1.7V2.6H1.6zM1.7,2.5H1.8V2.6H1.7zM1.9,2.5H2V2.6H1.9zM2.4,2.5H2.5V2.6H2.4zM2.5,2.5H2.6V2.6H2.5zM2.7,2.5H2.8V2.6H2.7zM0,2.6H0.1V2.7H0zM0.2,2.6H0.3V2.7H0.2zM0.3,2.6H0.4V2.7H0.3zM0.4,2.6H0.5V2.7H0.4zM0.6,2.6H0.7V2.7H0.6zM0.8,2.6H0.9V2.7H0.8zM1.1,2.6H1.2V2.7H1.1zM1.2,2.6H1.3V2.7H1.2zM1.4,2.6H1.5V2.7H1.4zM1.5,2.6H1.6V2.7H1.5zM1.6,2.6H1.7V2.7H1.6zM1.9,2.6H2V2.7H1.9zM2.3,2.6H2.4V2.7H2.3zM2.6,2.6H2.7V2.7H2.6zM2.8,2.6H2.9V2.7H2.8zM0,2.7H0.1V2.8H0zM0.6,2.7H0.7V2.8H0.6zM1,2.7H1.1V2.8H1zM1.2,2.7H1.3V2.8H1.2zM1.3,2.7H1.4V2.8H1.3zM1.6,2.7H1.7V2.8H1.6zM2,2.7H2.1V2.8H2zM2.2,2.7H2.3V2.8H2.2zM2.3,2.7H2.4V2.8H2.3zM2.4,2.7H2.5V2.8H2.4zM2.5,2.7H2.6V2.8H2.5zM2.7,2.7H2.8V2.8H2.7zM0,2.8H0.1V2.9H0zM0.1,2.8H0.2V2.9H0.1zM0.2,2.8H0.3V2.9H0.2zM0.3,2.8H0.4V2.9H0.3zM0.4,2.8H0.5V2.9H0.4zM0.5,2.8H0.6V2.9H0.5zM0.6,2.8H0.7V2.9H0.6zM0.8,2.8H0.9V2.9H0.8zM1.4,2.8H1.5V2.9H1.4zM1.5,2.8H1.6V2.9H1.5zM1.6,2.8H1.7V2.9H1.6zM1.7,2.8H1.8V2.9H1.7zM1.9,2.8H2V2.9H1.9zM2,2.8H2.1V2.9H2zM2.2,2.8H2.3V2.9H2.2zM2.7,2.8H2.8V2.9H2.7z" fill="black" fill-rule="evenodd"/></g>
</svg>